<svg width="31" height="31" viewBox="0 0 31 31" fill="none" xmlns="http://www.w3.org/2000/svg">
<g id="fluent:note-pin-16-regular">
<path id="Vector" d="M12.8088 2.82876L16.5424 6.56232C16.8701 6.88976 17.1148 7.29081 17.2561 7.73203C17.3974 8.17325 17.4311 8.64185 17.3545 9.09876C17.2779 9.55567 17.0932 9.98765 16.8158 10.3587C16.5383 10.7297 16.1762 11.029 15.7596 11.2317L12.5686 12.7856C12.1073 13.0103 11.754 13.4089 11.5863 13.8938L10.85 16.0289C10.7427 16.3396 10.5582 16.6178 10.3137 16.8375C10.0693 17.0572 9.77301 17.2111 9.45272 17.2847C9.13242 17.3584 8.79866 17.3493 8.48283 17.2584C8.167 17.1675 7.87948 16.9978 7.64731 16.7652L5.8125 14.9304L3.30731 17.4336H1.9375V16.0638L4.44269 13.5625L2.60594 11.7258C2.37378 11.4936 2.20445 11.2062 2.11384 10.8906C2.02322 10.575 2.0143 10.2415 2.0879 9.92154C2.16151 9.60155 2.31523 9.30552 2.53463 9.06124C2.75403 8.81695 3.03191 8.63243 3.34219 8.52501L5.47731 7.78876C5.71829 7.70523 5.94041 7.57495 6.13092 7.40538C6.32143 7.23581 6.47659 7.0303 6.5875 6.80063L8.14138 3.60957C8.34404 3.19297 8.64337 2.83085 9.01439 2.55341C9.38542 2.27597 9.8174 2.09126 10.2743 2.01466C10.7312 1.93807 11.1998 1.97182 11.641 2.11309C12.0823 2.25437 12.4833 2.49908 12.8108 2.82682L12.8088 2.82876ZM3.875 22.2813V19.2336L5.72338 17.3852L5.8125 17.4724V22.2813C5.8125 23.052 6.11869 23.7913 6.66372 24.3363C7.20875 24.8813 7.94796 25.1875 8.71875 25.1875H15.5V20.3438C15.5 19.0591 16.0103 17.8271 16.9187 16.9187C17.8271 16.0103 19.0591 15.5 20.3438 15.5H25.1875V8.71876C25.1875 7.94797 24.8813 7.20876 24.3363 6.66373C23.7913 6.1187 23.052 5.81251 22.2812 5.81251H18.3326C18.2536 5.71944 18.1709 5.62959 18.0846 5.54319L16.4164 3.87501H22.2812C23.5659 3.87501 24.7979 4.38533 25.7063 5.29371C26.6147 6.20209 27.125 7.43411 27.125 8.71876V15.8333C27.1247 17.1173 26.6146 18.3487 25.7067 19.2568L19.2568 25.7068C18.3487 26.6146 17.1173 27.1247 15.8333 27.125H8.71875C7.43411 27.125 6.20208 26.6147 5.2937 25.7063C4.38532 24.7979 3.875 23.5659 3.875 22.2813ZM17.4375 24.7031C17.5983 24.5966 17.7475 24.4745 17.887 24.335L24.3369 17.887C24.4745 17.7494 24.5966 17.5983 24.7051 17.4375H20.3438C19.573 17.4375 18.8337 17.7437 18.2887 18.2887C17.7437 18.8338 17.4375 19.573 17.4375 20.3438V24.7031Z" fill="black"/>
</g>
</svg>
